<mxfile host="app.diagrams.net" modified="2022-05-31T12:39:16.018Z" agent="5.0 (Windows NT 10.0; WOW64) AppleWebKit/537.36 (KHTML, like Gecko) Chrome/99.0.4844.51 Safari/537.36" etag="kX7w-Mpo7FNUAF3z7GrV" version="18.1.3" type="github">
  <diagram id="3F5zBIDhR5Rm8VuOonhM" name="Page-1">
    <mxGraphModel dx="981" dy="624" grid="1" gridSize="10" guides="1" tooltips="1" connect="1" arrows="1" fold="1" page="1" pageScale="1" pageWidth="826" pageHeight="1169" math="0" shadow="0">
      <root>
        <mxCell id="0" />
        <mxCell id="1" parent="0" />
        <mxCell id="tgpflyRlx-gm1w5A--DA-1" value="&lt;p style=&quot;margin: 0px ; margin-top: 4px ; text-align: center ; text-decoration: underline&quot;&gt;&lt;strong&gt;Piece&lt;/strong&gt;&lt;/p&gt;&lt;hr&gt;&lt;p style=&quot;margin: 0px ; margin-left: 8px&quot;&gt;....&lt;/p&gt;&lt;p style=&quot;margin: 0px ; margin-left: 8px&quot;&gt;grossWeight&lt;/p&gt;&lt;p style=&quot;margin: 0px ; margin-left: 8px&quot;&gt;&lt;span style=&quot;background-color: initial;&quot;&gt;ClimateEffect&lt;/span&gt;&lt;br&gt;&lt;/p&gt;&lt;p style=&quot;margin: 0px ; margin-left: 8px&quot;&gt;&lt;br&gt;&lt;/p&gt;" style="verticalAlign=top;align=left;overflow=fill;fontSize=12;fontFamily=Helvetica;html=1;strokeColor=#003366;shadow=1;fillColor=#D4E1F5;fontColor=#003366" parent="1" vertex="1">
          <mxGeometry x="980" y="150" width="170" height="80" as="geometry" />
        </mxCell>
        <mxCell id="tgpflyRlx-gm1w5A--DA-5" value="" style="endArrow=diamondThin;endSize=6;startArrow=block;startSize=6;startFill=0;edgeStyle=orthogonalEdgeStyle;exitX=1;exitY=0.5;exitDx=0;exitDy=0;endFill=0;entryX=-0.019;entryY=0.543;entryDx=0;entryDy=0;entryPerimeter=0;" parent="1" source="tgpflyRlx-gm1w5A--DA-8" target="tgpflyRlx-gm1w5A--DA-1" edge="1">
          <mxGeometry x="893" y="360" as="geometry">
            <mxPoint x="473" y="121.60000000000002" as="sourcePoint" />
            <mxPoint x="1053" y="360" as="targetPoint" />
          </mxGeometry>
        </mxCell>
        <mxCell id="tgpflyRlx-gm1w5A--DA-6" value="1..n" style="resizable=0;align=left;verticalAlign=top;labelBackgroundColor=#ffffff;fontSize=10;strokeColor=#003366;shadow=1;fillColor=#D4E1F5;fontColor=#003366" parent="tgpflyRlx-gm1w5A--DA-5" connectable="0" vertex="1">
          <mxGeometry x="-1" relative="1" as="geometry">
            <mxPoint x="10" as="offset" />
          </mxGeometry>
        </mxCell>
        <mxCell id="tgpflyRlx-gm1w5A--DA-8" value="&lt;p style=&quot;margin: 0px ; margin-top: 4px ; text-align: center ; text-decoration: underline&quot;&gt;&lt;strong&gt;TransportMovement&lt;/strong&gt;&lt;/p&gt;&lt;hr&gt;&lt;p style=&quot;margin: 0px ; margin-left: 8px&quot;&gt;...&lt;/p&gt;&lt;p style=&quot;margin: 0px ; margin-left: 8px&quot;&gt;distanceMeasured&lt;/p&gt;&lt;p style=&quot;margin: 0px ; margin-left: 8px&quot;&gt;distanceCalculated&lt;/p&gt;&lt;p style=&quot;margin: 0px ; margin-left: 8px&quot;&gt;fuelAmountCalculated&lt;/p&gt;&lt;p style=&quot;margin: 0px ; margin-left: 8px&quot;&gt;fuelAmountMeasured&lt;/p&gt;&lt;p style=&quot;margin: 0px ; margin-left: 8px&quot;&gt;fuelType&lt;/p&gt;&lt;p style=&quot;margin: 0px ; margin-left: 8px&quot;&gt;totalLoadedWeight&lt;/p&gt;&lt;p style=&quot;margin: 0px ; margin-left: 8px&quot;&gt;payloadDistance&lt;/p&gt;&lt;p style=&quot;margin: 0px ; margin-left: 8px&quot;&gt;ClimateEffectPiece&lt;/p&gt;&lt;p style=&quot;margin: 0px ; margin-left: 8px&quot;&gt;EmissionIntesivityFactor&lt;/p&gt;" style="verticalAlign=top;align=left;overflow=fill;fontSize=12;fontFamily=Helvetica;html=1;strokeColor=#003366;shadow=1;fillColor=#D4E1F5;fontColor=#003366" parent="1" vertex="1">
          <mxGeometry x="470" y="100" width="160" height="190" as="geometry" />
        </mxCell>
        <mxCell id="tgpflyRlx-gm1w5A--DA-9" value="&lt;p style=&quot;margin: 0px ; margin-top: 4px ; text-align: center ; text-decoration: underline&quot;&gt;&lt;strong&gt;TransportMeans&lt;/strong&gt;&lt;/p&gt;&lt;hr&gt;&lt;p style=&quot;margin: 0px ; margin-left: 8px&quot;&gt;....&lt;/p&gt;&lt;p style=&quot;margin: 0px ; margin-left: 8px&quot;&gt;typicalFuelConsumption&lt;/p&gt;&lt;p style=&quot;margin: 0px ; margin-left: 8px&quot;&gt;typicalCO2Coefficient&lt;/p&gt;" style="verticalAlign=top;align=left;overflow=fill;fontSize=12;fontFamily=Helvetica;html=1;strokeColor=#d79b00;shadow=1;fillColor=#ffe6cc;" parent="1" vertex="1">
          <mxGeometry x="231.5" y="90" width="158.5" height="80" as="geometry" />
        </mxCell>
        <mxCell id="tgpflyRlx-gm1w5A--DA-10" value="" style="endArrow=none;endSize=12;startArrow=none;startSize=14;startFill=0;edgeStyle=orthogonalEdgeStyle;exitX=1.017;exitY=0.563;exitDx=0;exitDy=0;exitPerimeter=0;entryX=0;entryY=0.5;entryDx=0;entryDy=0;endFill=0;" parent="1" source="tgpflyRlx-gm1w5A--DA-9" target="tgpflyRlx-gm1w5A--DA-8" edge="1">
          <mxGeometry x="903" y="370" as="geometry">
            <mxPoint x="611.7200000000003" y="186.15000000000077" as="sourcePoint" />
            <mxPoint x="673" y="190.0344827586207" as="targetPoint" />
          </mxGeometry>
        </mxCell>
        <mxCell id="tgpflyRlx-gm1w5A--DA-11" value="1:1" style="resizable=0;align=left;verticalAlign=top;labelBackgroundColor=#ffffff;fontSize=10;strokeColor=#003366;shadow=1;fillColor=#D4E1F5;fontColor=#003366" parent="tgpflyRlx-gm1w5A--DA-10" connectable="0" vertex="1">
          <mxGeometry x="-1" relative="1" as="geometry">
            <mxPoint x="10" as="offset" />
          </mxGeometry>
        </mxCell>
        <mxCell id="7WvtKGHfwESVPrSTEF-f-2" style="edgeStyle=orthogonalEdgeStyle;orthogonalLoop=1;jettySize=auto;html=1;exitX=1;exitY=0.25;exitDx=0;exitDy=0;entryX=-0.005;entryY=0.938;entryDx=0;entryDy=0;entryPerimeter=0;startArrow=diamondThin;startFill=0;endArrow=block;endFill=0;" parent="1" source="tgpflyRlx-gm1w5A--DA-20" target="tgpflyRlx-gm1w5A--DA-8" edge="1">
          <mxGeometry relative="1" as="geometry" />
        </mxCell>
        <mxCell id="tgpflyRlx-gm1w5A--DA-20" value="&lt;p style=&quot;margin: 0px ; margin-top: 4px ; text-align: center ; text-decoration: underline&quot;&gt;&lt;b&gt;EmissionIntensivityFactor&lt;/b&gt;&lt;/p&gt;&lt;hr&gt;&lt;p style=&quot;margin: 0px ; margin-left: 8px&quot;&gt;URI&lt;/p&gt;&lt;p style=&quot;margin: 0px ; margin-left: 8px&quot;&gt;payloadDistanceResult&lt;/p&gt;&lt;p style=&quot;margin: 0px ; margin-left: 8px&quot;&gt;ISOTransparencyLevel&lt;/p&gt;&lt;p style=&quot;margin: 0px ; margin-left: 8px&quot;&gt;fuelConsumptionParameter&lt;/p&gt;&lt;p style=&quot;margin: 0px ; margin-left: 8px&quot;&gt;distanceParameter&lt;/p&gt;&lt;p style=&quot;margin: 0px ; margin-left: 8px&quot;&gt;EIFactor&lt;/p&gt;" style="verticalAlign=top;align=left;overflow=fill;fontSize=12;fontFamily=Helvetica;html=1;strokeColor=#d79b00;shadow=1;fillColor=#ffe6cc;" parent="1" vertex="1">
          <mxGeometry x="223" y="300" width="177" height="120" as="geometry" />
        </mxCell>
        <mxCell id="cCnUegtr5oPg0CuNszyz-1" value="&lt;p style=&quot;margin: 0px ; margin-top: 4px ; text-align: center ; text-decoration: underline&quot;&gt;&lt;b&gt;ClimateEffectPieceTM&lt;/b&gt;&lt;/p&gt;&lt;hr&gt;&lt;p style=&quot;margin: 0px ; margin-left: 8px&quot;&gt;&lt;span&gt;URI&lt;/span&gt;&lt;/p&gt;&lt;p style=&quot;margin: 0px ; margin-left: 8px&quot;&gt;&lt;span&gt;CO2equivalentWTW&lt;/span&gt;&lt;/p&gt;&lt;p style=&quot;margin: 0px ; margin-left: 8px&quot;&gt;CO2equivalentTTW&lt;span&gt;&lt;br&gt;&lt;/span&gt;&lt;/p&gt;&lt;p style=&quot;margin: 0px ; margin-left: 8px&quot;&gt;&lt;span&gt;MethodName&lt;/span&gt;&lt;br&gt;&lt;/p&gt;&lt;p style=&quot;margin: 0px ; margin-left: 8px&quot;&gt;&lt;span&gt;MethodVersion&lt;/span&gt;&lt;/p&gt;&lt;p style=&quot;margin: 0px ; margin-left: 8px&quot;&gt;MethodLink&lt;/p&gt;&lt;p style=&quot;margin: 0px ; margin-left: 8px&quot;&gt;Verification&lt;/p&gt;&lt;p style=&quot;margin: 0px ; margin-left: 8px&quot;&gt;Accreditation&lt;/p&gt;&lt;p style=&quot;margin: 0px ; margin-left: 8px&quot;&gt;TransportMovementReference&lt;/p&gt;&lt;p style=&quot;margin: 0px ; margin-left: 8px&quot;&gt;PieceReference&lt;/p&gt;" style="verticalAlign=top;align=left;overflow=fill;fontSize=12;fontFamily=Helvetica;html=1;strokeColor=#d79b00;shadow=1;fillColor=#ffe6cc;" parent="1" vertex="1">
          <mxGeometry x="710" y="300" width="210" height="180" as="geometry" />
        </mxCell>
        <mxCell id="7WvtKGHfwESVPrSTEF-f-4" value="n:1" style="resizable=0;align=left;verticalAlign=top;labelBackgroundColor=#ffffff;fontSize=10;strokeColor=#003366;shadow=1;fillColor=#D4E1F5;fontColor=#003366" parent="1" connectable="0" vertex="1">
          <mxGeometry x="413" y="290" as="geometry" />
        </mxCell>
        <mxCell id="sGq3VUX8ILG5Ux0BHtPr-1" style="edgeStyle=orthogonalEdgeStyle;rounded=0;orthogonalLoop=1;jettySize=auto;html=1;exitX=0.5;exitY=1;exitDx=0;exitDy=0;" edge="1" parent="1" source="tgpflyRlx-gm1w5A--DA-8" target="tgpflyRlx-gm1w5A--DA-8">
          <mxGeometry relative="1" as="geometry" />
        </mxCell>
        <mxCell id="sGq3VUX8ILG5Ux0BHtPr-4" value="" style="endArrow=diamondThin;endSize=6;startArrow=block;startSize=6;startFill=0;edgeStyle=orthogonalEdgeStyle;endFill=0;entryX=0.999;entryY=0.932;entryDx=0;entryDy=0;entryPerimeter=0;" edge="1" parent="1" target="cCnUegtr5oPg0CuNszyz-1">
          <mxGeometry x="1243" y="485" as="geometry">
            <mxPoint x="980" y="220" as="sourcePoint" />
            <mxPoint x="1176.7699999999998" y="333.87" as="targetPoint" />
          </mxGeometry>
        </mxCell>
        <mxCell id="sGq3VUX8ILG5Ux0BHtPr-5" value="1..n" style="resizable=0;align=left;verticalAlign=top;labelBackgroundColor=#ffffff;fontSize=10;strokeColor=#003366;shadow=1;fillColor=#D4E1F5;fontColor=#003366" connectable="0" vertex="1" parent="sGq3VUX8ILG5Ux0BHtPr-4">
          <mxGeometry x="-1" relative="1" as="geometry">
            <mxPoint x="-59" y="27" as="offset" />
          </mxGeometry>
        </mxCell>
        <mxCell id="sGq3VUX8ILG5Ux0BHtPr-6" value="&lt;p style=&quot;margin: 0px ; margin-top: 4px ; text-align: center ; text-decoration: underline&quot;&gt;&lt;strong&gt;ULD&lt;/strong&gt;&lt;/p&gt;&lt;hr&gt;&lt;p style=&quot;margin: 0px ; margin-left: 8px&quot;&gt;....&lt;/p&gt;&lt;p style=&quot;margin: 0px ; margin-left: 8px&quot;&gt;&lt;br&gt;&lt;/p&gt;&lt;p style=&quot;margin: 0px ; margin-left: 8px&quot;&gt;&lt;br&gt;&lt;/p&gt;" style="verticalAlign=top;align=left;overflow=fill;fontSize=12;fontFamily=Helvetica;html=1;strokeColor=#003366;shadow=1;fillColor=#D4E1F5;fontColor=#003366" vertex="1" parent="1">
          <mxGeometry x="672" y="50" width="154" height="50" as="geometry" />
        </mxCell>
        <mxCell id="sGq3VUX8ILG5Ux0BHtPr-7" value="" style="endArrow=diamondThin;endSize=6;startArrow=block;startSize=6;startFill=0;edgeStyle=orthogonalEdgeStyle;exitX=1;exitY=0.25;exitDx=0;exitDy=0;endFill=0;" edge="1" parent="1" source="tgpflyRlx-gm1w5A--DA-8" target="sGq3VUX8ILG5Ux0BHtPr-6">
          <mxGeometry x="903" y="370" as="geometry">
            <mxPoint x="640" y="195" as="sourcePoint" />
            <mxPoint x="836.7699999999998" y="188.87" as="targetPoint" />
          </mxGeometry>
        </mxCell>
        <mxCell id="sGq3VUX8ILG5Ux0BHtPr-8" value="1..n" style="resizable=0;align=left;verticalAlign=top;labelBackgroundColor=#ffffff;fontSize=10;strokeColor=#003366;shadow=1;fillColor=#D4E1F5;fontColor=#003366" connectable="0" vertex="1" parent="sGq3VUX8ILG5Ux0BHtPr-7">
          <mxGeometry x="-1" relative="1" as="geometry">
            <mxPoint x="30" y="-32" as="offset" />
          </mxGeometry>
        </mxCell>
        <mxCell id="sGq3VUX8ILG5Ux0BHtPr-9" value="" style="endArrow=diamondThin;endSize=6;startArrow=block;startSize=6;startFill=0;edgeStyle=orthogonalEdgeStyle;endFill=0;entryX=-0.006;entryY=0.313;entryDx=0;entryDy=0;entryPerimeter=0;" edge="1" parent="1" source="sGq3VUX8ILG5Ux0BHtPr-6" target="tgpflyRlx-gm1w5A--DA-1">
          <mxGeometry x="913" y="380" as="geometry">
            <mxPoint x="880" y="90" as="sourcePoint" />
            <mxPoint x="860" y="150" as="targetPoint" />
          </mxGeometry>
        </mxCell>
        <mxCell id="sGq3VUX8ILG5Ux0BHtPr-10" value="1..n" style="resizable=0;align=left;verticalAlign=top;labelBackgroundColor=#ffffff;fontSize=10;strokeColor=#003366;shadow=1;fillColor=#D4E1F5;fontColor=#003366" connectable="0" vertex="1" parent="sGq3VUX8ILG5Ux0BHtPr-9">
          <mxGeometry x="-1" relative="1" as="geometry">
            <mxPoint x="10" as="offset" />
          </mxGeometry>
        </mxCell>
        <mxCell id="sGq3VUX8ILG5Ux0BHtPr-11" value="" style="endArrow=diamondThin;endSize=6;startArrow=block;startSize=6;startFill=0;edgeStyle=orthogonalEdgeStyle;endFill=0;entryX=0.003;entryY=0.799;entryDx=0;entryDy=0;entryPerimeter=0;" edge="1" parent="1" source="tgpflyRlx-gm1w5A--DA-8" target="cCnUegtr5oPg0CuNszyz-1">
          <mxGeometry x="977.45" y="568.5699999999999" as="geometry">
            <mxPoint x="613.4300000000001" y="316.1900000000001" as="sourcePoint" />
            <mxPoint x="720" y="450" as="targetPoint" />
            <Array as="points">
              <mxPoint x="690" y="250" />
              <mxPoint x="690" y="446" />
            </Array>
          </mxGeometry>
        </mxCell>
        <mxCell id="sGq3VUX8ILG5Ux0BHtPr-12" value="1..n" style="resizable=0;align=left;verticalAlign=top;labelBackgroundColor=#ffffff;fontSize=10;strokeColor=#003366;shadow=1;fillColor=#D4E1F5;fontColor=#003366" connectable="0" vertex="1" parent="sGq3VUX8ILG5Ux0BHtPr-11">
          <mxGeometry x="-1" relative="1" as="geometry">
            <mxPoint x="28" y="9" as="offset" />
          </mxGeometry>
        </mxCell>
        <mxCell id="sGq3VUX8ILG5Ux0BHtPr-13" value="(Bulk freight)" style="resizable=0;align=left;verticalAlign=top;labelBackgroundColor=#ffffff;fontSize=10;strokeColor=#003366;shadow=1;fillColor=#D4E1F5;fontColor=#003366" connectable="0" vertex="1" parent="1">
          <mxGeometry x="760" y="202" as="geometry" />
        </mxCell>
        <mxCell id="sGq3VUX8ILG5Ux0BHtPr-14" value="(Freight on ULD)" style="resizable=0;align=left;verticalAlign=top;labelBackgroundColor=#ffffff;fontSize=10;strokeColor=#003366;shadow=1;fillColor=#D4E1F5;fontColor=#003366" connectable="0" vertex="1" parent="1">
          <mxGeometry x="710" y="110" as="geometry" />
        </mxCell>
      </root>
    </mxGraphModel>
  </diagram>
</mxfile>
